<svg width="50" height="50" viewBox="0 0 50 50" fill="none" xmlns="http://www.w3.org/2000/svg">
<path d="M23.4793 36.758L17.1841 38.8366C15.5278 39.3812 13.8131 38.162 13.8131 36.4277V32.2345L10.7737 31.1749C10.0363 30.9166 9.7679 30.0276 10.2242 29.4046C13.0963 25.5276 12.2721 23.7417 13.0031 18.6689C14.7684 8.17576 25.2366 4.32691 34.1291 8.89888C37.9059 10.835 40.17 14.77 39.99 18.9757C39.7579 24.4022 37.8553 28.8819 35.4317 33.0813C34.7228 34.3069 34.3533 35.6968 34.3533 37.1086V43H22.0314V39.8899M33.6239 20.7145C33.6239 20.0885 33.9301 19.525 34.4165 19.1713C34.8317 18.8692 34.9849 18.3213 34.8096 17.8377C34.6864 17.4918 34.5412 17.1521 34.3739 16.8282C34.1339 16.3664 33.6239 16.0925 33.1076 16.1864C32.4965 16.2944 31.857 16.1144 31.3913 15.6527C30.9539 15.2207 30.7644 14.6212 30.8371 14.0452C30.9034 13.5177 30.6555 13.0137 30.1692 12.7821C29.8344 12.624 29.4918 12.4863 29.135 12.372C28.685 12.2264 28.0739 12.408 27.804 12.7962C27.4471 13.3096 26.8582 13.6336 26.2029 13.6336C25.5493 13.6336 25.003 13.3299 24.6461 12.8478C24.3414 12.4362 23.7888 12.2844 23.3009 12.4581C22.9519 12.5802 22.6093 12.7242 22.2825 12.8901C21.8167 13.128 21.5404 13.6336 21.6351 14.1454C21.744 14.7511 21.5625 15.3866 21.0967 15.8468C20.6609 16.2803 20.0562 16.4682 19.4752 16.3962C18.9431 16.3304 18.4346 16.5761 18.201 17.0582C18.0415 17.3901 17.9026 17.7297 17.7873 18.0834C17.6405 18.5374 17.8236 19.1353 18.2152 19.4029C18.7331 19.7566 19.0599 20.3405 19.0599 20.99C19.0599 21.638 18.7536 22.1796 18.2673 22.5333C17.852 22.8354 17.6989 23.3832 17.8741 23.8669C17.9973 24.2128 18.1425 24.5524 18.3099 24.8764C18.5499 25.3382 19.0599 25.6121 19.5762 25.5182C20.1872 25.4102 20.8267 25.5902 21.2925 26.0519C21.7299 26.4855 21.9193 27.0834 21.8467 27.6594C21.7804 28.1868 22.0283 28.6908 22.5146 28.9225C22.8493 29.0806 23.1919 29.2183 23.5488 29.3326C23.9988 29.4781 24.6098 29.2966 24.8798 28.9084C25.2366 28.3966 25.8255 28.071 26.4808 28.071C27.1345 28.071 27.6808 28.3747 28.0376 28.8567C28.3424 29.2684 28.895 29.4202 29.3829 29.2465C29.7318 29.1244 30.0744 28.9804 30.4013 28.8145C30.8671 28.5766 31.1434 28.071 31.0486 27.5592C30.9397 26.9535 31.1213 26.3195 31.587 25.8578C32.0228 25.4242 32.6276 25.2364 33.2086 25.3084C33.7407 25.3742 34.2491 25.1284 34.4828 24.6463C34.6423 24.3145 34.7812 23.9749 34.8965 23.6211C35.0433 23.175 34.8601 22.5693 34.4686 22.3017C33.9507 21.9479 33.6239 21.3641 33.6239 20.7145ZM30.3681 20.8524C30.3681 22.9701 28.6013 24.6871 26.4208 24.6871C24.2403 24.6871 22.4735 22.9701 22.4735 20.8524C22.4735 18.7346 24.2403 17.0176 26.4208 17.0176C28.6013 17.0176 30.3681 18.7346 30.3681 20.8524Z" stroke="#1E49E2" stroke-miterlimit="10" stroke-linecap="round" stroke-linejoin="round"/>
</svg>
