<svg width="26" height="26" viewBox="0 0 26 26" fill="none" xmlns="http://www.w3.org/2000/svg">
<rect width="26" height="26" rx="13" fill="#F7F7F7"/>
<path d="M12.3917 17.5725L9.87364 18.3809C9.21113 18.5927 8.52524 18.1185 8.52524 17.4441V15.8134L7.30947 15.4013C7.01453 15.3009 6.90716 14.9552 7.08968 14.7129C8.23851 13.2052 7.90883 12.5107 8.20125 10.5379C8.90734 6.45724 13.0946 4.96047 16.6516 6.73845C18.1623 7.4914 19.068 9.02165 18.996 10.6572C18.9032 12.7675 18.1421 14.5096 17.1727 16.1427C16.8891 16.6193 16.7413 17.1598 16.7413 17.7089V20H11.8126V18.7905M16.4495 11.3334C16.4495 11.09 16.5721 10.8708 16.7666 10.7333C16.9327 10.6158 16.9939 10.4027 16.9238 10.2147C16.8746 10.0801 16.8165 9.94806 16.7495 9.82206C16.6535 9.64249 16.4495 9.53597 16.243 9.57249C15.9986 9.61449 15.7428 9.5445 15.5565 9.36493C15.3816 9.19693 15.3058 8.9638 15.3348 8.7398C15.3613 8.53468 15.2622 8.33867 15.0677 8.24859C14.9338 8.18711 14.7967 8.13354 14.654 8.08911C14.474 8.0325 14.2296 8.10311 14.1216 8.25407C13.9788 8.45372 13.7433 8.57972 13.4812 8.57972C13.2197 8.57972 13.0012 8.46163 12.8584 8.27415C12.7366 8.11407 12.5155 8.05503 12.3203 8.12259C12.1808 8.17007 12.0437 8.22607 11.913 8.29059C11.7267 8.38311 11.6161 8.57972 11.654 8.77876C11.6976 9.01432 11.625 9.26145 11.4387 9.44041C11.2644 9.60902 11.0225 9.68206 10.7901 9.65406C10.5772 9.62849 10.3739 9.72406 10.2804 9.91153C10.2166 10.0406 10.161 10.1727 10.1149 10.3102C10.0562 10.4868 10.1294 10.7193 10.2861 10.8234C10.4932 10.9609 10.624 11.188 10.624 11.4406C10.624 11.6926 10.5014 11.9032 10.3069 12.0407C10.1408 12.1582 10.0796 12.3713 10.1497 12.5593C10.1989 12.6939 10.257 12.8259 10.324 12.9519C10.42 13.1315 10.624 13.238 10.8305 13.2015C11.0749 13.1595 11.3307 13.2295 11.517 13.4091C11.6919 13.5777 11.7677 13.8102 11.7387 14.0342C11.7122 14.2393 11.8113 14.4353 12.0058 14.5254C12.1397 14.5869 12.2768 14.6405 12.4195 14.6849C12.5995 14.7415 12.8439 14.6709 12.9519 14.5199C13.0947 14.3209 13.3302 14.1943 13.5923 14.1943C13.8538 14.1943 14.0723 14.3124 14.2151 14.4998C14.3369 14.6599 14.558 14.719 14.7531 14.6514C14.8927 14.6039 15.0298 14.5479 15.1605 14.4834C15.3468 14.3909 15.4574 14.1943 15.4195 13.9952C15.3759 13.7597 15.4485 13.5132 15.6348 13.3336C15.8091 13.165 16.051 13.0919 16.2834 13.1199C16.4963 13.1455 16.6996 13.0499 16.7931 12.8625C16.8569 12.7334 16.9125 12.6013 16.9586 12.4638C17.0173 12.2903 16.9441 12.0547 16.7874 11.9506C16.5803 11.8131 16.4495 11.586 16.4495 11.3334ZM15.1472 11.387C15.1472 12.2106 14.4405 12.8783 13.5683 12.8783C12.6961 12.8783 11.9894 12.2106 11.9894 11.387C11.9894 10.5635 12.6961 9.89574 13.5683 9.89574C14.4405 9.89574 15.1472 10.5635 15.1472 11.387Z" stroke="#7213EA" stroke-width="0.8" stroke-miterlimit="10" stroke-linecap="round" stroke-linejoin="round"/>
</svg>
